<svg height="512" viewBox="0 0 128 128" width="512" xmlns="http://www.w3.org/2000/svg"><g id="Education,-graduation,-hat-icon" fill="none" fill-rule="evenodd"><path id="Shape" d="m64 82 .5312052.0005379c8.2461326.0167123 15.967487.4239338 21.7987497 1.1270086l.5964358.0737834c6.6749237.8471956 10.0736093 1.862703 10.0736093 3.7986701 0 1.8713991-3.1899117 2.8889799-9.450049 3.7180101l-.7984993.1026949-.6076371.0740097c-5.3257368.6320335-12.1867354 1.0191994-19.5691104 1.092539l-.8540686.0070656-1.7206356.0056807c-8.3533319 0-16.2035697-.4003248-22.1438146-1.1052853l-.6076371-.0740097c-6.7872726-.8484091-10.2485483-1.8713309-10.2485483-3.820705 0-1.8713991 3.1899117-2.8889799 9.450049-3.7180101l.7984993-.1026949.6076371-.0740097c5.5305728-.6563425 12.7167756-1.0486192 20.423179-1.0996046zm.2032243-46.9791343.134237.0377949 52.9999997 19c.85078.3049964.879774 1.4707419.100898 1.8409238l-.116762.0472923-10.321599 3.5041233.001188 11.6492591c2.210348.4492371 3.89094 2.3566274 3.993818 4.6742131l.004994.2255278v10c0 .5128358-.386038.9355072-.883377.9932723l-.116623.0067277h-8c-.512834 0-.935505-.3860402-.99327-.8833789l-.00673-.1166211v-10c0-2.4188915 1.717667-4.4366008 3.999814-4.8999437l.000186-10.9700563-6.2878355 2.1366991c-.5334532-2.4929951-1.781671-4.7209839-3.5197743-6.4590873-2.2685181-2.268518-5.3715392-3.7025332-8.8090872-3.8020693l-.3833025-.0055425h-44c-3.5898494 0-6.8398494 1.4550746-9.1923867 3.8076118-1.6896933 1.6896934-2.91641 3.8423636-3.4735423 6.2514029l-17.6612017-6.1140361c-.8486762-.2937943-.8969881-1.4493419-.1310249-1.83462l.1149641-.0496235 52-19c.1757297-.0642089.3650164-.0775205.5464173-.0398694zm21.7967757 18.9791343c5.9787016 0 10.8433652 4.7697636 10.9962926 10.7115925l.0037074.2884075.001227 18.693893c-.4503517-.2886782-.9964797-.5606884-1.6469742-.8059843-1.7817689-.6718895-4.5092434-1.2052642-8.176038-1.6706617-5.762344-.731369-13.4831709-1.1693669-21.7824078-1.2135439l-1.3937816-.0037031c-8.1531811 0-15.8303056.3791895-21.7536606 1.0466136l-1.2416279.1473534-.9933541.1288905c-3.2319829.4356626-5.6719337.9333962-7.3181184 1.5471013-.6732468.2509895-1.2363016.530018-1.6982091.8263153l.0029447-18.6962741c0-5.9787016 4.7697636-10.8433652 10.7115925-10.9962926l.2884075-.0037074z" fill="rgb(0,0,0)" fill-rule="nonzero"/></g></svg>