<?xml version="1.0" encoding="iso-8859-1"?>
<!-- Generator: Adobe Illustrator 16.0.0, SVG Export Plug-In . SVG Version: 6.00 Build 0)  -->
<!DOCTYPE svg PUBLIC "-//W3C//DTD SVG 1.1//EN" "http://www.w3.org/Graphics/SVG/1.1/DTD/svg11.dtd">
<svg version="1.1" id="Capa_1" xmlns="http://www.w3.org/2000/svg" xmlns:xlink="http://www.w3.org/1999/xlink" x="0px" y="0px"
	 width="27.139px" height="27.139px" viewBox="0 0 27.139 27.139" style="enable-background:new 0 0 27.139 27.139;"
	 xml:space="preserve">
<g>
	<g>
		<path d="M15.074,18.468v-3.016H12.06v3.016H3.015c-0.828,0-1.594-0.24-2.262-0.629v5.152c0,1.658,1.357,3.016,3.015,3.016h19.599
			c1.658,0,3.015-1.357,3.015-3.016v-5.152c-0.668,0.391-1.435,0.629-2.263,0.629H15.074z"/>
		<path d="M24.121,4.901h-3.977c0-2.078-1.691-3.769-3.77-3.769h-5.613c-2.046,0-3.708,1.642-3.76,3.769H3.016
			C1.357,4.901,0,6.257,0,7.916v6.031c0,1.66,1.357,3.015,3.016,3.015h7.538v-3.015h1.508V8.768V7.261V5.657h3.014v1.604v1.507
			v5.179h1.509v3.015h7.538c1.658,0,3.016-1.355,3.016-3.015V7.916C27.136,6.257,25.779,4.901,24.121,4.901z M8.5,4.901
			c0-1.247,1.015-2.262,2.262-2.262h5.613c1.216,0,2.204,0.967,2.252,2.262H8.5z"/>
	</g>
</g>
<g>
</g>
<g>
</g>
<g>
</g>
<g>
</g>
<g>
</g>
<g>
</g>
<g>
</g>
<g>
</g>
<g>
</g>
<g>
</g>
<g>
</g>
<g>
</g>
<g>
</g>
<g>
</g>
<g>
</g>
</svg>
