<?xml version="1.0" encoding="iso-8859-1"?>
<!-- Generator: Adobe Illustrator 16.0.0, SVG Export Plug-In . SVG Version: 6.00 Build 0)  -->
<!DOCTYPE svg PUBLIC "-//W3C//DTD SVG 1.1//EN" "http://www.w3.org/Graphics/SVG/1.1/DTD/svg11.dtd">
<svg version="1.1" id="Capa_1" xmlns="http://www.w3.org/2000/svg" xmlns:xlink="http://www.w3.org/1999/xlink" x="0px" y="0px"
	 width="21.854px" height="21.854px" viewBox="0 0 21.854 21.854" style="enable-background:new 0 0 21.854 21.854;"
	 xml:space="preserve">
<g>
	<g>
		<path d="M12.915,16.32c-1.3-0.685-2.755-1.715-4.21-3.168c-1.456-1.457-2.487-2.914-3.171-4.216l1.127-3.026l-3.799-5.91
			L1.61,1.254l0.001,0.003C1.603,1.266,1.593,1.271,1.583,1.282c-3.158,3.157-1.457,9.621,3.957,15.035
			c5.414,5.413,11.877,7.113,15.036,3.957c0.009-0.01,0.016-0.02,0.024-0.029l1.252-1.254l-5.908-3.799L12.915,16.32z"/>
		<path d="M20.101,11.375h1.75C21.851,5.104,16.749,0,10.477,0v1.75C15.784,1.75,20.101,6.069,20.101,11.375z"/>
		<path d="M16.601,11.375h1.75c0-4.343-3.531-7.875-7.875-7.875v1.75C13.853,5.25,16.601,7.998,16.601,11.375z"/>
		<path d="M13.101,11.375h1.75C14.851,8.962,12.888,7,10.477,7v1.75C11.925,8.75,13.101,9.928,13.101,11.375z"/>
	</g>
</g>
<g>
</g>
<g>
</g>
<g>
</g>
<g>
</g>
<g>
</g>
<g>
</g>
<g>
</g>
<g>
</g>
<g>
</g>
<g>
</g>
<g>
</g>
<g>
</g>
<g>
</g>
<g>
</g>
<g>
</g>
</svg>
